<svg viewBox="0 0 126 29" xmlns="http://www.w3.org/2000/svg" width="126" height="29"><path d="M5.688 19.712c.32 0 .352.096.352.48 0 .48-.096.992-.096 1.472 0 3.328.768 6.144 4.768 6.144 5.408 0 7.2-6.368 7.904-10.56l.064-.32h-.608l-.064.064c-1.664 1.088-3.584 1.472-5.568 1.472-4.608 0-9.504-1.824-9.504-7.136 0-1.696.416-3.232 1.248-4.672C6.68 2.144 11.64.64 16.504.64c7.04 0 10.464 2.912 10.464 10.112 0 10.176-6.304 17.952-16.768 17.952-3.616 0-9.984-1.376-9.984-5.856 0-2.752 3.2-3.136 5.472-3.136zm8.608-2.304c4.608 0 5.568-7.168 5.568-10.464 0-2.4-.48-5.408-3.648-5.408-4.608 0-5.632 7.008-5.632 10.368 0 2.368.64 5.504 3.712 5.504zM66.552 28h-7.488l1.344-9.504c.224-1.664.608-3.36.608-5.024 0-.768-.128-2.144-1.312-2.144-1.248 0-2.144 1.792-2.592 2.624l-5.152 10.08c-1.152 2.272-2.752 4.384-5.472 4.384-2.304 0-3.904-1.472-3.904-3.84 0-2.016.768-3.776 1.504-5.536.352-.864.736-1.728.992-2.624.288-.928.48-1.824.48-2.784 0-1.28-.544-2.432-2.016-2.432-4.32 0-5.824 8.352-6.272 11.424l-.8 5.376h-7.488l2.88-20.128h7.392l-.992 5.92h.64l.064-.192c1.312-3.616 3.936-6.432 7.968-6.432 3.424 0 5.184 1.984 5.184 5.344 0 1.664-.384 3.296-.896 4.896-.16.48-.608 1.6-1.056 2.752-.448 1.088-.864 2.176-.864 2.496 0 .48.256.992.864.992.576 0 .928-.544 1.152-.96l4.736-9.344c1.632-3.2 3.68-6.176 7.552-6.176 3.456 0 4.96 2.048 4.96 5.408 0 2.272-.48 4.448-.8 6.624L66.552 28zm10.432-12.896c.672-.256.928-.288 1.632-.448l.96-.192-.48-.16c-2.56-.768-5.408-2.656-5.408-5.6 0-6.144 8.16-8.064 13.12-8.064 4.288 0 10.976 1.344 10.976 6.688 0 3.84-3.552 6.112-6.944 6.88l-.384.096.384.16c2.688 1.056 4.96 2.88 4.96 6.016 0 6.784-7.488 8.224-12.96 8.224-4.384 0-11.232-1.056-11.232-6.624 0-3.232 2.432-5.888 5.376-6.976zm5.92 12.704c4.064 0 5.28-4.512 5.28-7.712 0-2.464-.928-4.864-3.808-4.864-4.064 0-5.216 4.672-5.216 7.84 0 2.432.864 4.736 3.744 4.736zm2.048-13.664c4.096 0 5.216-4.608 5.216-7.776 0-2.464-.864-4.832-3.776-4.832-4.096 0-5.088 4.832-5.088 7.936 0 2.432.704 4.672 3.648 4.672zm19.36.96c.672-.256.928-.288 1.632-.448l.96-.192-.48-.16c-2.528-.768-5.408-2.688-5.408-5.6 0-6.144 8.192-8.064 13.12-8.064 4.288 0 10.976 1.344 10.976 6.688 0 3.84-3.552 6.112-6.944 6.88l-.384.096.384.16c2.688 1.056 5.024 2.848 5.024 6.016 0 6.784-7.488 8.224-12.96 8.224-4.416 0-11.296-1.024-11.296-6.624 0-3.232 2.432-5.888 5.376-6.976zm5.984 12.704c4 0 5.216-4.544 5.216-7.712 0-2.464-.928-4.864-3.808-4.864-4.064 0-5.216 4.672-5.216 7.84 0 2.464.864 4.736 3.808 4.736zm1.984-13.664c4.128 0 5.248-4.576 5.248-7.776 0-2.496-.832-4.832-3.808-4.832-4.032 0-5.088 4.864-5.088 7.936 0 2.432.768 4.672 3.648 4.672z" class="fill_part" fill="#000" fill-rule="nonzero"/></svg>
